<svg width="25" height="25" viewBox="0 0 25 25" fill="none" xmlns="http://www.w3.org/2000/svg">
<path d="M0 8.49312V8.16195C0 4.17084 2.4668 0.766686 5.83008 0.111207C8.0127 -0.322163 10.3223 0.526306 11.9141 2.39054L12.5 3.07457L13.042 2.39054C14.6777 0.526306 16.9434 -0.322163 19.1699 0.111207C22.5342 0.766686 25 4.17084 25 8.16195V8.49312C25 10.8627 24.1602 13.1294 22.6758 14.7453L13.8525 24.3776C13.4863 24.7773 13.0029 25 12.5 25C11.9971 25 11.5137 24.7773 11.1475 24.3776L2.32373 14.7453C0.841309 13.1294 1.46484e-05 10.8627 1.46484e-05 8.49312H0Z" fill="#AD2632"/>
</svg>