<svg width="20" height="26" viewBox="0 0 20 26" fill="none" xmlns="http://www.w3.org/2000/svg">
<path d="M10.625 0C5.28125 0 0 3.56316 0 9.32985C0 12.9972 2.0625 15.0809 3.3125 15.0809C3.82812 15.0809 4.125 13.6431 4.125 13.2368C4.125 12.7524 2.89062 11.7209 2.89062 9.70492C2.89062 5.51664 6.07812 2.54735 10.2031 2.54735C13.75 2.54735 16.375 4.56334 16.375 8.26715C16.375 11.0333 15.2656 16.2217 11.6719 16.2217C10.375 16.2217 9.26562 15.2841 9.26562 13.9401C9.26562 11.971 10.6406 10.0644 10.6406 8.03273C10.6406 4.58418 5.75 5.2093 5.75 9.37673C5.75 10.2519 5.85937 11.2208 6.25 12.0178C5.53125 15.1122 4.0625 19.7224 4.0625 22.9105C4.0625 23.895 4.20312 24.864 4.29687 25.8485C4.47396 26.0465 4.38542 26.0256 4.65625 25.9267C7.28125 22.3323 7.1875 21.629 8.375 16.925C9.01562 18.144 10.6719 18.8003 11.9844 18.8003C17.5156 18.8003 20 13.4087 20 8.54846C20 3.37562 15.5312 0 10.625 0Z" fill="black"/>
</svg>